<svg xmlns="http://www.w3.org/2000/svg" enable-background="new 0 0 100 100" viewBox="0 0 100 100"><path d="M43.3,86h13.4c-0.9,2.9-3.6,5-6.7,5S44.2,88.9,43.3,86z M80.2,77.2l-6.1-6.1c-1-1-1.6-2.4-1.6-3.8V67H27.5v0.4
	c0,1.4-0.6,2.8-1.6,3.8l-6.1,6.1c-0.5,0.5-0.8,1.2-0.8,2c0,1.5,1.2,2.8,2.8,2.8h56.4c1.5,0,2.8-1.2,2.8-2.8
	C81,78.5,80.7,77.8,80.2,77.2z M72.5,43.5C72.5,31.1,62.4,21,50,21S27.5,31.1,27.5,43.5V63h45.1V43.5z M50,17c2.2,0,4-1.8,4-4
	c0-2.2-1.8-4-4-4s-4,1.8-4,4C46,15.2,47.8,17,50,17z"/></svg>