<?xml version="1.0" encoding="UTF-8"?><svg xmlns="http://www.w3.org/2000/svg" xmlns:xlink="http://www.w3.org/1999/xlink" version="1.1" id="Layer_1_1_" x="0px" y="0px" viewBox="0 0 30 30" xml:space="preserve"><path d="M26.401 6.894c-.035-.05-.078-.092-.114-.141a14.137 14.137 0 0 0-2.018-2.216c-.06-.054-.118-.11-.179-.163a14.037 14.037 0 0 0-2.654-1.793c-.038-.02-.078-.037-.117-.056a13.925 13.925 0 0 0-1.302-.579c-.095-.037-.19-.07-.286-.105a13.99 13.99 0 0 0-1.204-.373c-.121-.032-.24-.065-.362-.093a14.15 14.15 0 0 0-1.209-.222c-.124-.018-.246-.042-.371-.057C16.064 1.037 15.537 1 15 1s-1.064.037-1.586.096c-.125.014-.247.039-.371.057a13.77 13.77 0 0 0-1.209.222c-.122.029-.241.062-.362.093-.409.107-.81.231-1.204.373-.096.035-.191.068-.286.105-.445.172-.88.364-1.302.579-.039.02-.078.036-.117.056A14.041 14.041 0 0 0 5.91 4.373c-.061.053-.118.109-.179.163a14.177 14.177 0 0 0-1.188 1.188c-.293.33-.569.672-.83 1.029-.036.048-.079.091-.114.141-.006.008-.007.018-.012.027a13.904 13.904 0 0 0 0 16.158c.006.008.006.019.012.027.035.05.078.092.114.141a14.137 14.137 0 0 0 2.018 2.216c.06.054.118.11.179.163.81.694 1.699 1.296 2.654 1.793.038.02.078.037.117.056.422.215.857.407 1.302.579.095.037.19.07.286.105.394.142.795.266 1.204.373.121.032.24.065.362.093.397.092.8.164 1.209.222.124.018.246.042.371.057.521.059 1.048.096 1.585.096s1.064-.037 1.586-.096c.125-.014.247-.039.371-.057a13.77 13.77 0 0 0 1.209-.222c.122-.029.241-.062.362-.093.409-.107.81-.231 1.204-.373.096-.035.191-.068.286-.105.445-.172.88-.364 1.302-.579.039-.02.078-.036.117-.056a14.053 14.053 0 0 0 2.654-1.793c.061-.052.119-.109.179-.163a14.177 14.177 0 0 0 2.018-2.216c.036-.049.079-.092.114-.141.006-.008.006-.019.012-.027a13.91 13.91 0 0 0-.001-16.158c-.005-.009-.006-.019-.012-.027zm-1.139 14.293c-1.368-.729-3.025-1.287-4.863-1.659.286-1.115.487-2.296.56-3.529h5.99a11.898 11.898 0 0 1-1.687 5.188zm-1.272 1.735c-.235.267-.48.523-.736.766-.063.06-.128.117-.193.175a12.007 12.007 0 0 1-.975.799c-.272.2-.553.388-.84.564-.066.041-.132.082-.199.121-.303.178-.615.341-.932.491-.058.028-.115.057-.174.084-.331.151-.67.284-1.014.404-.053.018-.104.04-.157.058-.348.116-.703.212-1.061.296-.056.013-.11.031-.166.043-.138.03-.28.044-.419.069a25.424 25.424 0 0 0 2.693-5.342c1.612.312 3.073.775 4.265 1.37-.03.035-.062.067-.092.102zm-11.7 3.758c-.358-.084-.713-.18-1.061-.296-.053-.018-.104-.039-.157-.058-.344-.12-.683-.253-1.014-.404-.058-.026-.115-.056-.173-.083-.317-.15-.629-.314-.932-.491-.067-.039-.133-.08-.199-.121a11.836 11.836 0 0 1-.84-.564c-.07-.052-.14-.103-.209-.156a12.007 12.007 0 0 1-.766-.643c-.064-.058-.13-.115-.193-.175a12.11 12.11 0 0 1-.736-.766c-.03-.034-.062-.067-.092-.102 1.192-.595 2.653-1.059 4.265-1.37a25.4 25.4 0 0 0 2.693 5.342c-.139-.025-.281-.039-.419-.069-.057-.013-.111-.031-.167-.044zM3.051 16h5.99c.073 1.232.274 2.413.56 3.529-1.839.372-3.496.93-4.863 1.659A11.906 11.906 0 0 1 3.051 16zm1.687-7.187c1.368.729 3.025 1.287 4.863 1.659A18.635 18.635 0 0 0 9.041 14h-5.99a11.898 11.898 0 0 1 1.687-5.187zM6.01 7.078c.235-.267.48-.523.736-.766.063-.06.128-.117.193-.175a12.007 12.007 0 0 1 .975-.799 12.069 12.069 0 0 1 1.971-1.177c.058-.027.115-.057.173-.084.331-.151.67-.284 1.014-.404.053-.018.104-.04.157-.058.348-.115.703-.211 1.061-.295.056-.013.11-.031.166-.043.138-.03.28-.044.419-.069a25.424 25.424 0 0 0-2.693 5.342c-1.612-.311-3.073-.775-4.264-1.37.03-.035.062-.067.092-.102zm11.7-3.758c.358.084.713.18 1.061.296.053.018.104.039.157.058.344.12.683.253 1.014.404.058.026.115.056.173.083a12.168 12.168 0 0 1 1.131.612c.288.176.568.364.84.564.07.052.14.103.209.156.264.203.519.418.766.643.064.058.13.115.193.175.256.243.501.5.736.766.03.034.062.067.092.102-1.192.595-2.653 1.059-4.265 1.37a25.4 25.4 0 0 0-2.693-5.342c.139.025.281.039.419.069.057.013.111.031.167.044zM15 19c-1.173 0-2.316.073-3.417.205A16.657 16.657 0 0 1 11.036 16h7.928a16.762 16.762 0 0 1-.549 3.205A28.69 28.69 0 0 0 15 19zm2.784 2.149a24.282 24.282 0 0 1-2.785 5.198 24.128 24.128 0 0 1-2.787-5.198A26.744 26.744 0 0 1 15 21c.948 0 1.88.054 2.784.149zM11.036 14c.076-1.115.276-2.188.549-3.205a28.69 28.69 0 0 0 6.832 0c.273 1.016.472 2.089.547 3.205h-7.928zM15 9c-.948 0-1.88-.054-2.784-.149a24.282 24.282 0 0 1 2.785-5.198 24.128 24.128 0 0 1 2.787 5.198C16.882 8.946 15.95 9 15 9zm5.959 5a18.659 18.659 0 0 0-.56-3.529c1.839-.372 3.496-.93 4.863-1.659.932 1.54 1.53 3.3 1.687 5.187h-5.99z"/><metadata><rdf:RDF xmlns:rdf="http://www.w3.org/1999/02/22-rdf-syntax-ns#" xmlns:rdfs="http://www.w3.org/2000/01/rdf-schema#" xmlns:dc="http://purl.org/dc/elements/1.1/"><rdf:Description about="https://iconscout.com/legal#licenses" dc:title="global,language,earth,online,worldwild,internet" dc:description="global,language,earth,online,worldwild,internet" dc:publisher="Iconscout" dc:date="2017-11-30" dc:format="image/svg+xml" dc:language="en"><dc:creator><rdf:Bag><rdf:li>Becris .</rdf:li></rdf:Bag></dc:creator></rdf:Description></rdf:RDF></metadata></svg>