<svg xmlns="http://www.w3.org/2000/svg" enable-background="new 0 0 100 100" viewBox="0 0 100 100"><path d="M83,74.4l-6.1-6.1c-0.2-0.3-0.4-0.6-0.4-1V43.5c0-12.4-8.6-22.9-20.1-25.8c1-1.3,1.6-3,1.6-4.8c0-4.4-3.6-8-8-8s-8,3.6-8,8
	c0,1.8,0.6,3.5,1.6,4.8C32,20.6,23.5,31.1,23.5,43.5v23.8c0,0.4-0.2,0.7-0.4,1L17,74.4c-1.3,1.3-2,3-2,4.8c0,3.8,3,6.8,6.8,6.8h17.4
	c1,5.1,5.4,9,10.8,9s9.9-3.9,10.8-9h17.4c3.8,0,6.8-3,6.8-6.8C85,77.4,84.3,75.7,83,74.4z M50,9c2.2,0,4,1.8,4,4c0,2.2-1.8,4-4,4
	s-4-1.8-4-4C46,10.8,47.8,9,50,9z M27.5,43.5C27.5,31.1,37.6,21,50,21s22.5,10.1,22.5,22.5V63H27.5V43.5z M50,91
	c-3.2,0-5.8-2.1-6.7-5h13.4C55.8,88.9,53.2,91,50,91z M78.2,82H21.8c-1.5,0-2.8-1.2-2.8-2.8c0-0.7,0.3-1.4,0.8-2l6.1-6.1
	c1-1,1.6-2.4,1.6-3.8V67h45.1v0.4c0,1.4,0.6,2.8,1.6,3.8l6.1,6.1c0.5,0.5,0.8,1.2,0.8,2C81,80.8,79.8,82,78.2,82z"/></svg>